<svg id="logo_curry_house-stroke_Image" data-name="logo curry house-stroke Image" xmlns="http://www.w3.org/2000/svg" viewBox="0 0 820.17 429.07"><path d="M402,430H390c-9.62-2.95-19.8-4.57-27.38-11.9-8.43,8.59-18.66,9.39-29.27,8-7.45-1-14.49-2.06-22.31-.42-8.7,1.82-18.1,1-27.13.36-12.27-.9-16.91-9.28-17.41-19-.88-16.82-.25-33.72-.25-51.16-8.94,2.21-16.93,4.27-25,6.13-14.85,3.45-25.8-8.39-22.07-22.65.72-2.73,2-5.31,3.47-8.92-2.64,1.27-4.43,2.05-6.15,3a123.93,123.93,0,0,1-49.38,14.46c-19.25,1.37-38.55.78-57.42-4.45a143.16,143.16,0,0,1-66.28-39.54c-12-12.55-21-27-28.59-42.41a146.64,146.64,0,0,1-14.54-55c-1.48-22.56-.19-45,7.19-66.89A202.59,202.59,0,0,1,30.32,92.05,176.49,176.49,0,0,1,72.6,47.44c14.76-11,30.4-20.08,47.76-26.34C139,14.38,157.84,8.46,177.55,5.83,190.84,4.05,204.14,2,217.5,1.26a185.42,185.42,0,0,1,33.65,1A171,171,0,0,1,282,9.64c14,4.54,22.58,17.23,34.29,25.38,5.51,3.84,10.53,7.58,17,9.31,3.85,1,7.82,1.88,11.44,3.48,8,3.51,15.79,7.45,23.89,11.31.37-1,.88-2.5,1.52-4,3.84-8.83,12.74-13.89,21.13-12.17,18.63,3.81,37.37,2.13,56.12,1.12,4.2-.23,9-.65,12.57,1,5.48,2.48,10.27,1.15,15.35-.07,2.59-.61,5.16-1.31,7.71-2.06,5-1.48,9.48,0,13.64,2.72,6.95,4.52,7.85,11.87,9.06,19.16.26,1.52,1.66,3.86,2.81,4,8.26,1.27,15.8,3.92,21.84,9.93,11.68-8.75,24.33-12.53,38.61-9.43C589.41,73.8,600.13,85.53,604,107c1.09,6.06.42,11.47-2.62,16.74a4.14,4.14,0,0,0-.6,3.1c1.87,4.34,4,8.56,6.22,13.18h5.54q92,0,184,0c8.13,0,15.68,1.68,20.26,9.32,1.4,2.35,2.13,5.1,3.16,7.66v14c-2.26,6-3.76,12.42-9.93,16.06-.64.39-.88,2-.8,3,.76,9.26,2,18.49,2.39,27.75,1.15,32,1.87,63.92,3,95.87.48,14.11-1.28,27.46-9.42,39.54-15.22,22.59-38,31.47-63.54,34.78-21.77,2.81-42.69-1.33-62.94-9.74-1.31,1.4-2.62,2.82-3.95,4.26,13.06,6.63,12.9,26.2,2.24,33.19-4.25,2.8-8.38,6.39-13.1,7.73-8.87,2.53-18.14,5.21-27.2,5.06-15.06-.25-28.58-6.5-40.62-15.8-12,11.13-25.83,15.34-41.86,13.48a43.57,43.57,0,0,0-14.76,1.21,21.08,21.08,0,0,1-16.66-2.64c-1.1-.66-2.79-1.31-3.85-.93-11.54,4.09-23.38,1.86-35.11,1.93a93.09,93.09,0,0,0-10.67.81c-4.72.59-9.71,2.75-14.08,1.82-9.38-2-18.86-4.79-24.09-14-4.3,2.94-8.09,6.37-12.53,8.36C415.84,425.76,408.81,427.66,402,430Z" transform="translate(0.25 -0.94)"/><path d="M141.21,329.5c-16.35-.27-39.76-5.7-60.78-20-6.75-4.6-26.92-22.51-29.92-26.81-7.09-10.19-14.89-20.38-19.42-31.75-9.45-23.72-14.85-48.38-11.21-74.45a315.35,315.35,0,0,1,6.75-32.41c5.22-21,17.28-38,29.77-54.78,42.7-41.61,68.17-52.94,107.48-62.18,23.47-5.82,47.29-8,71.25-7.63,13.62.21,27.76.26,40.45,7,2.78,1.47,12.56,10.21,12.58,14.28a71.06,71.06,0,0,0,1.6,14.31c2,9.62-.36,18.06-5.61,26.08C282,84.44,277.56,94.19,278,95c3,6.11-1.51,7.93-5.56,9.28-13.59,4.53-27.1,3.35-40.65-.84-26.89-8.31-54.33-11.28-81.68-3.51-33.11,9.41-56.65,30.35-70.29,62.33a100.75,100.75,0,0,0-6.35,59.61c4.89,25.55,18.95,45.22,41.67,58.13,18.27,10.38,37.83,15.5,59,12.14,18.88-3,35-11.71,48.31-25.13,4.21-4.24,19.61-18.73,18.67-45.42s-9.8-38.53-18.12-45.77c-8.57-7.46-14-12-30-14.22s-38.16,2.18-47.17,9.2S130.86,192.3,130.19,198s1.61,20.83,9.08,29.16c2.32,2.59,22.36,10,28.3,10.28,2.11.08,4.45-.17,6.25.67,2.56,1.19,3.22,4,.67,5.55a47,47,0,0,1-11.14,4.9c-16,4.8-41.28-6.56-45.29-24.49-3-8.62-5.69-16.42-3.42-31s13.69-30.17,19.8-35.17,3.22-3.31,9.49-7.25,17.81-8.32,32.21-11.5c16-.55,33.67,2.21,45.59,8.87,20.11,11.23,34,28.41,41,50.33,5.53,17.27,5.09,34.93,1.08,52.73-4.89,21.79-17.49,38.25-34.12,52C208.07,321,182.07,329.34,141.21,329.5Z" transform="translate(0.25 -0.94)" style="fill:#f05c2b"/><path d="M381.3,274.54c-3.48,2.1-6.43,3.92-9.42,5.67-22.08,13-45.4,11.72-64.85-4.86-9.64-8.22-15.93-19.06-16.06-32.55-.22-22-.73-44-.88-65.94,0-4.49-1.82-5.76-6-5.74-7.79,0-10.45-3.78-8.05-11.34a4.52,4.52,0,0,1,2.65-2.41,15.42,15.42,0,0,1,4.47-.18H794c7.73,0,8.39.82,8.2,8.1-.12,4.49-2,6-6.47,6-30-.15-60-.08-90-.07-7.27,0-7.1,0-6.88,7.2.46,15,.56,30,1.13,44.93.4,10.62.57,21.33,2.22,31.79,1.91,12.15,9.37,18,21.67,19a42.12,42.12,0,0,0,45.94-42.52c-.16-13.12-1-26.24-1.73-39.36-.16-3.13.67-4.56,4-3.47,6.32,2.09,12.76,3.89,18.85,6.5,1.57.67,2.79,3.86,2.89,6,.58,11.47.79,23,1.08,34.45.71,28.79,1.53,57.58,2.07,86.38.34,18.68-10.93,30.27-25.79,38.57-20.29,11.33-42.2,11.65-64.54,7.48a77.16,77.16,0,0,1-28.91-11.77c-7.93-5.28-14.3-12-17-21.44a21.39,21.39,0,0,1,4.52-20.58c9.65-11.45,22.51-16.82,37.12-18.06a10,10,0,0,1,7.16,3.07c4.32,4.71,8,10,12.74,16.11-5.63,1-10,1.53-14.23,2.7-8,2.22-15.91,4.62-23.7,7.4-2.54.9-4.78,3-6.82,4.89-3.58,3.34-4.18,7.19-1.83,11.74,5.84,11.29,15.58,17.37,27.51,19.44,21.1,3.66,40.82-.08,57.78-13.89,9-7.3,14-16.92,13.91-28.67-.18-16-.7-31.95-1.11-47.92a24.15,24.15,0,0,0-.64-3.37,14.55,14.55,0,0,0-3.15,1.48c-8,6.57-17.28,9.18-27.56,10.18-12,1.18-23.6.31-34.87-3.7C687,268.4,677.11,254,676.94,232.2c-.16-18.65-.72-37.29-.92-55.94,0-3.65-1.39-5.22-5-5-1.83.09-3.67,0-5.5,0H321.63c-1.33,0-2.67.07-4,0-3.38-.15-4.73,1.34-4.64,4.79.24,9.16.22,18.32.34,27.49.21,15.65.33,31.3.74,46.95.28,10.49,3.25,20.22,11.59,27.14,9.95,8.25,21.23,7.19,32,2,15.86-7.67,23.29-21.44,24.27-38.52.79-13.75.35-27.58.77-41.37.22-6.82,1.4-7.59,8.19-7.55l6,0c6.42,0,8.56,1.63,8.72,8q1,37.2,1.38,74.42c0,1.61-1.24,4.25-2.5,4.69a108.41,108.41,0,0,1-14.89,3.83c-3.86.76-7-.09-6.94-5.11C382.63,277.12,382,276.2,381.3,274.54Z" transform="translate(0.25 -0.94)" style="fill:#f8ac4c"/><path d="M483.42,403.49c-6,2.18-11.19,3.81-16.19,6a12.1,12.1,0,0,1-14.51-3.4c-3.76-4.65-7.19-11-7.45-16.78-.93-21.26-.47-42.58-.61-63.88,0-4.65-.27-9.3-.57-13.94-.18-2.82.5-4.24,3.76-4.39A85.54,85.54,0,0,0,460,305.29c3.23-.64,5-.16,5.17,3.7.64,19.44,1.49,38.87,2.17,58.31.22,6.64.11,13.29.2,19.93.08,5.74,3.47,10.13,8.33,10.88,5.34.82,8-1.44,8-7.25,0-15.16.12-30.32-.22-45.47-.26-11.28-1.11-22.54-1.75-33.81-.13-2.36,0-4,3.05-4.61a153.46,153.46,0,0,0,15.88-4.22c3.76-1.19,5.13-.28,5.17,3.76.19,16.46.59,32.91.95,49.36q.47,21.21,1,42.41a13.45,13.45,0,0,0,.73,3.86c1.95,5.68,1.79,6-4,6-4.17,0-8.33-.06-12.49,0C488.42,408.26,484.71,408.3,483.42,403.49Z" transform="translate(0.25 -0.94)" style="fill:#13b900"/><path d="M432.5,366.6c-.75,8.59.3,17.13-3.83,25.4-11.28,22.62-44.12,26.65-59.61,6.43-5.5-7.18-8.69-14.89-8.16-24.23.49-8.62.09-17.29,0-25.95-.23-21.42,17.92-35.85,39.75-33.94,13.62,1.2,27.67,13.25,29.89,26C432,348.92,431.9,357.82,432.5,366.6ZM405.93,350l-.47,0c-.47-7.77-.74-15.57-1.51-23.32a8.2,8.2,0,0,0-8.59-7.28,8.74,8.74,0,0,0-8.29,8.4q-.06,32.13.17,64.26a30.52,30.52,0,0,0,1,6.9c1.08,4.52,4.88,7.65,8.93,7.13,4.47-.57,7.9-2.49,8.06-7.78.1-3.31.68-6.61.7-9.92C406,375.56,405.93,362.77,405.93,350Z" transform="translate(0.25 -0.94)" style="fill:#13b900"/><path d="M309.65,349.76c8-6.15,15.92-4.77,23.63-4.58,8.31.2,13.78,5,14.12,13.16.42,9.77,0,19.58.08,29.36.07,5.31.71,10.6.78,15.91,0,1.21-1.22,3.48-1.94,3.5-6.26.21-12.53.1-18.79-.18-.75,0-2-1.73-2-2.66-.19-13.13-.32-26.26-.23-39.39.05-7.06-.75-8.37-7.17-9.44-4.28-.71-7.35,1.26-8.35,5.55a22,22,0,0,0-.69,5.39c.23,12.62.68,25.24.69,37.86,0,1.3-2.36,3.58-3.77,3.7-5.22.46-10.51,0-15.76.29-3.85.18-5.3-1.1-5.29-5.11.06-18.8-.12-37.61-.27-56.42-.06-8.14-.07-16.29-.49-24.42-.15-3,.71-4.18,3.51-4.76,4.54-.95,9-2.2,13.53-3.32,3.85-1,6.12.09,6.19,4.5.11,7,.29,14,.66,20.94C308.21,342.53,308.94,345.39,309.65,349.76Z" transform="translate(0.25 -0.94)" style="fill:#13b900"/><path d="M654.17,317c-.4,5.61-2.82,6.5-7.62,5.15-33.76-9.54-67.6-18.8-101.4-28.21-18.1-5-36.2-10.05-54.23-15.32a29,29,0,0,0-16.63.13q-70.37,19.8-140.79,39.35a59.37,59.37,0,0,1-8.22,2c-1.63.21-3.39-.51-5.09-.82.69-2.52,1-5.27,2.22-7.48.61-1.09,2.95-1.26,4.55-1.73Q388.19,292,449.42,273.86c9.4-2.8,18.66-6.12,28.12-8.66a19.49,19.49,0,0,1,10.17.16c40.57,12.35,81.06,25,121.59,37.47,13.18,4.07,26.4,8,39.59,12.1C650.74,315.5,652.51,316.35,654.17,317Z" transform="translate(0.25 -0.94)" style="fill:#ff9500"/><path d="M579.24,199.61c7.18-3.19,14.35-6.6,21.7-9.56,6.18-2.48,12.55-2.51,19.09-.79,2.76.74,6-.43,8.81.26a35.44,35.44,0,0,1,19.91,12.54c8.15,10.5,6.73,17.76-.34,26-4.06,4.7-9.47,8.28-14.47,12.1a5.24,5.24,0,0,1-4.53.44c-4.11-2-11.66-13.16-12.65-17.49,5.08-3.5,10.22-6.47,14.66-10.25,3.63-3.1,5.82-7.46,4-12.53-1.48-4.17-8.13-7.92-13.15-8.07-10.87-.33-18.69,5.64-25.86,12.63A68.65,68.65,0,0,0,578.79,234c-.72,2.31-.49,4.95-.5,7.43,0,12.33,0,24.65,0,37,0,6.42-1.27,7.41-7.47,5.49a48.62,48.62,0,0,1-10.61-4.18,7.85,7.85,0,0,1-3.13-5.57c-.6-11-.8-21.94-1.09-32.91-.36-13.8-.53-27.61-1.12-41.4-.19-4.69,1.65-7.26,6-7.15A59.94,59.94,0,0,1,575,194.61C576.68,195.07,577.79,197.83,579.24,199.61Z" transform="translate(0.25 -0.94)" style="fill:#f8ac4c"/><path d="M582,335.79c-4.52,4.08-8.94,1.82-12.51.17-5-2.32-9.44-5.9-14-9.11-4.3-3-9.14-3.74-13.72-1.92-2.09.83-4.65,4.44-4.36,6.42.52,3.6,2.11,8.67,4.81,10a160.57,160.57,0,0,0,28.55,11.44c10.72,3,18.73,11.59,19.39,22.76.41,6.94-.15,13.39-3.81,19.67-5.27,9.07-13.24,12.63-23.11,12.94-6.47.21-13,0-19.44,0-1.49,0-3.26-.26-4.42.42-5.24,3.08-7.5-.36-9.87-4.06-2.13-3.34-4.56-6.5-6.59-9.89-.85-1.43-1.82-3.62-1.28-4.81s3-2.72,4.35-2.47a63.82,63.82,0,0,1,14.21,3.94c4.35,1.94,8,5.32,12.28,7.59a25.52,25.52,0,0,0,9.22,3.12c7,.67,11.73-2.31,13.16-7.34,1.38-4.87-1.85-11.86-7.52-14.41-8.17-3.67-16.55-6.91-25-10s-16.4-7-19.84-16.08c-3.87-10.27-1.42-25.42,8.46-32.34,7.39-5.17,15.05-5.31,23.3-4.16,4.75.66,9.58.78,14.33,1.43,1.8.25,4.26.78,5.1,2.05C576.72,325.85,579.22,330.87,582,335.79Z" transform="translate(0.25 -0.94)" style="fill:#13b900"/><path d="M456.57,199.37c9.4-3.61,18.24-8.3,27.65-10.32,15.15-3.26,29.46-.46,40.93,11.26,9.24,9.44,9.35,20.27-.07,29.41-3.8,3.7-8,7-12.19,10.28-2.58,2.06-5.17,1.92-7.48-.71-4.58-5.21-9.21-10.37-14.32-16.12,3-1.17,5.45-2.14,7.89-3a24.16,24.16,0,0,0,13.39-11.37c2.85-5.17,1.94-9.1-2.77-12.69C504.21,192,498.22,192,492,193.83c-16.85,5-33.6,25.6-35,43.15-.53,6.62-.68,13.27-.9,19.91-.22,6.43-1.28,7.8-7.33,9.43-3.21.86-6.36,1.94-9.55,2.89s-5.14-.27-5.57-3.67a32,32,0,0,1-.5-3.46c-.14-20.82-.41-41.64-.27-62.45.05-6.74,1.47-7.56,8.21-7.54h4.49C454.34,192.13,454.34,192.14,456.57,199.37Z" transform="translate(0.25 -0.94)" style="fill:#f8ac4c"/><path d="M344.41,115.64a17.09,17.09,0,0,1-.81-1.74c-3.3-9.6-8.15-12.54-17.24-10.44-8.49,2-14.86,10.69-13.69,18.91,2.94,20.66,26.2,27.47,42.28,16.88,18.32-12.06,17.62-38.43-1-50.84-16.91-11.25-34.14-13-51.71-1.14-3,2-6.57,3-10.83,3.72,10.35-14.26,11.79-29.57,7.32-45.93l1.66-.5c1.54,1,3.61,1.63,4.55,3,6.08,9,15.81,11.08,25.27,13.57,24,6.29,41.75,19.34,48.78,44.2,5.66,20-8.58,42.8-29,46.82-12.32,2.42-24,1.25-34-6.87-9.18-7.46-12.38-17.49-9.82-29,2.23-10,7.86-17.18,18.27-19.66,9.59-2.29,19.52,3,21.91,11.81.61,2.27.09,4.85.09,7.29Z" transform="translate(0.25 -0.94)" style="fill:#13b900"/><path d="M492.41,148.13c-7.36,0-14.15.12-20.93-.06-2.46-.07-3.35-1.51-2.5-4.15a21.75,21.75,0,0,0,1-6.81c-.25-21.3-.62-42.61-1-63.91-.05-2.88-1.23-6.52.1-8.42,1.2-1.71,5.2-1.26,7.83-2.17,13.31-4.62,10.91-.57,11.16,8.46.11,4,0,8,.21,12,.12,2.29.68,4.57,1.16,7.64,2-.9,3.71-1.66,5.42-2.41,7.33-3.21,14.73-3.62,21.2,1.45a13.38,13.38,0,0,1,4.7,8.71c.67,12.42.37,24.89.77,37.33.12,3.73,1.38,7.41,2.21,11.59a9.18,9.18,0,0,1-2.64.76c-5.16.12-10.32.05-15.49.13-3.14,0-4-.89-3.86-4.44.41-13.32.33-26.65.07-40-.12-6.07-2.44-8.08-7.3-7.75-3.51.24-5.62,1.81-5.52,5.61.35,12.81.59,25.62,1.11,38.41C490.22,142.51,491.44,144.84,492.41,148.13Z" transform="translate(0.25 -0.94)" style="fill:#13b900"/><path d="M462.29,82.22c-6.27,1.44-11.86.43-16.71-3.61-2.4-2-4.2-4.73-6.56-6.81-1.61-1.42-3.71-2.27-5.6-3.38-.73,2-2,4.07-2.1,6.14-.28,6.31-.18,12.65-.07,19,.22,13.3.42,26.6.91,39.89a27.71,27.71,0,0,0,2.16,10.07c1.5,3.39,0,4.61-2.63,4.7-6.81.24-13.64.18-20.45-.16-1-.05-3-2.84-2.72-3.39,4.37-8.24,2.21-17,2.26-25.54.08-14.29-.45-28.59-.87-42.88-.07-2.35-.92-4.68-1.4-7-2.67,1.09-5.71,1.69-7.92,3.38-4.4,3.37-7.28,8.93-13.54,9.55-2.13.21-4.35-.34-6.53-.54a45.48,45.48,0,0,1,1.16-5.78C383,72,384.44,68.33,386,64.64c1.05-2.57,2.33-4.22,5.89-3.93,11.71.95,23.47,1.66,35.22,1.83,7.61.12,15.23-.87,22.85-1.35,2.91-.18,4.85.56,5.88,3.88C457.54,70.73,460,76.19,462.29,82.22Z" transform="translate(0.25 -0.94)" style="fill:#13b900"/><path d="M667.23,400.19c-9.68,9-21.65,12.18-34.48,9.32-7.73-1.72-15-6-22.16-9.61-2.15-1.09-3.65-3.84-5-6.1-12.56-21.36-5.16-44.12,15.07-55.55,13.4-7.57,32.55-.27,40.33,14.46A41.22,41.22,0,0,1,664.6,362c1.27,5.12-.43,7.09-5.84,7.18-6.16.11-12.32,0-18.48.06-4.28,0-8.57.09-12.86.28-3.85.18-5.35,2.65-3.74,6.7,3.83,9.61,10.56,16.73,20.46,19.71C651.46,398.1,659.23,398.76,667.23,400.19Zm-36.72-35.05c1,0,2,0,3,0,7.94-.16,10-2.31,8.43-9.87a27.16,27.16,0,0,0-3.55-8.56c-2.61-4.31-8.43-6.85-12.39-5.3a11,11,0,0,0-7.53,10C617.52,361.85,620.19,365.17,630.51,365.14Z" transform="translate(0.25 -0.94)" style="fill:#13b900"/><path d="M588.71,141.62c-2,1.68-3.9,3.67-6.15,5-9.82,5.67-33.24,4.49-42.33-6.4-4.31-5.17-7.12-10.72-7.44-17.53-.48-10.31-.26-20.23,7.53-28.48,6.73-7.11,19.85-10.44,29.49-7,11.1,4,16.29,12.39,17.07,23.32.27,3.89-1.56,5.69-5.2,5.62-6.31-.12-12.62-.46-18.93-.71a5.47,5.47,0,0,0-1.48-.13c-3,.78-5.92,1.64-8.87,2.47.78,2.62,1.12,5.49,2.44,7.81,5.45,9.66,14,14.3,25,14.57,2.63.07,5.27,0,7.9,0Zm-31.3-29.38c10.59-1.07,11-1.61,8-11.17a26.89,26.89,0,0,0-.77-2.87c-2.54-5.74-10.85-7.72-13.89-3.07-2.58,4-4.2,8.94-1.47,13.16C550.7,110.45,554.62,111,557.41,112.24Z" transform="translate(0.25 -0.94)" style="fill:#13b900"/><path d="M237.48,342.9c5.24-4.45,10-9.5,17.31-11,5.68-1.17,11.18-3.22,16.74-5,2.19-.69,4.37-1.43,5.25,1.61s.19,5.43-3,6.34c-9,2.52-17.94,4.93-26.94,7.33-2.94.78-5.93,1.38-8.89,2.07Z" transform="translate(0.25 -0.94)" style="fill:#ff9500"/><path d="M722.78,343.29l-34.7-9.87C693.76,327,712.84,332.1,722.78,343.29Z" transform="translate(0.25 -0.94)" style="fill:#ff9500"/><path d="M405.93,350c0,12.79.05,25.58,0,38.36,0,3.31-.6,6.61-.7,9.92-.16,5.29-3.59,7.21-8.06,7.78-4.05.52-7.85-2.61-8.93-7.13a30.52,30.52,0,0,1-1-6.9q-.19-32.13-.17-64.26a8.74,8.74,0,0,1,8.29-8.4,8.2,8.2,0,0,1,8.59,7.28c.77,7.75,1,15.55,1.51,23.32Z" transform="translate(0.25 -0.94)" style="fill:none"/><path d="M630.51,365.13c-10.32,0-13-3.28-12-13.7a11,11,0,0,1,7.53-10c4-1.55,9.78,1,12.39,5.3a27.16,27.16,0,0,1,3.55,8.56c1.52,7.56-.49,9.71-8.43,9.87C632.5,365.16,631.51,365.14,630.51,365.13Z" transform="translate(0.25 -0.94)"/><path d="M557.41,112.24c-2.79-1.27-6.71-1.79-8.12-3.95-2.73-4.22-1.11-9.21,1.47-13.16,3-4.65,11.35-2.67,13.89,3.07a26.89,26.89,0,0,1,.77,2.87C568.4,110.63,568,111.17,557.41,112.24Z" transform="translate(0.25 -0.94)"/></svg>