<svg id="logo_curry_house-stroke_Image" data-name="logo curry house-stroke Image" xmlns="http://www.w3.org/2000/svg" xmlns:xlink="http://www.w3.org/1999/xlink" viewBox="0 0 812.46 424.72"><defs><linearGradient id="linear-gradient" x1="278.78" y1="264.63" x2="803.4" y2="264.63" gradientUnits="userSpaceOnUse"><stop offset="0" stop-color="#f35944"/><stop offset="1" stop-color="#ffd085"/></linearGradient></defs><path d="M403.05,427.86c-13.72.61-28.29-2.62-39-11.78-14.63,15.48-33.3,3.84-51.06,7.48-16.32,2.19-44.54,4.19-44.1-18.5-.87-16.65-.24-33.38-.24-50.64-8.85,2.18-16.76,4.23-24.72,6.07-19.84,4.47-27.89-16.08-18.42-31.26C71.31,405.77-56.26,228.44,35.11,93.28c32-49.48,88.72-76.94,145.76-85.36,34.34-5.43,70.07-8.37,103.38,3.78,13.91,4.5,22.35,17.05,33.95,25.13,8.24,7.1,18.17,9.45,28.14,12.65C354.25,53,362,56.86,370,60.69c2.59-10.09,12.64-18.29,22.42-16,22.41,5.7,45.85-1.2,68,2.08,8,3.38,15.21-.36,22.83-2.11,13.4-3.48,22.12,10,22.47,21.67.25,1.5,1.64,3.82,2.78,4,8.18,1.26,15.65,3.88,21.62,9.83,26.28-21.45,69.16-8,72.93,27.94,2.84,19.26-9.52,11.31,3,32.69q93.76,0,187.61,0c11.15-.81,20.67,5.52,23.19,16.81.41,10.72.28,23.11-9.83,29.77,1.45,41.09,3.7,83.7,4.5,125.35,4.81,69.11-83.41,89-134.54,63.94L673,380.89c12.93,6.56,12.77,25.94,2.22,32.86-11.19,9-26,12.15-39.9,12.66-14.91-.24-28.3-6.44-40.21-15.64-17.76,17.86-34.59,11.4-56.06,14.54-8.55,2.76-13.16-2.28-20.3-3.54-11.43,4.05-23.15,1.85-34.76,1.92-8.12-.61-16.77,3.25-24.5,2.61-9.29-2-18.68-4.75-23.86-13.83C426.08,420.8,414.85,424.22,403.05,427.86Z" transform="translate(-4.47 -3.21)"/><path d="M144.89,328.36C27.58,319.42-11.89,176,60.93,90.53c60.93-59.67,105.24-66.89,176.94-69.11,18.37,0,44.28.88,52.5,21.07.85,13.83,5.59,27.95-4,40-2.14,3.28-6.53,12.93-6.13,13.74,7.1,15.69-38.15,12.5-45.75,8.35C105.26,58.09,18.39,213.63,119,279.36c69.27,44.53,166.92-33.72,106.8-103.15-23.16-26.31-86.26-14.8-88.82,21.84-2.36,18.78,2.91,35.26,27.33,38.92,11.22-.85,20-13.37,21.87-12.9s1.21,9.42-3.94,17.49c-18.62,20.2-54.36,6.39-62.31-18.15-11.52-37.57,16.74-80.1,59.5-83.46C311,139.87,297.07,335.69,144.89,328.36Z" transform="translate(-4.47 -3.21)" style="fill:#ff4848"/><path d="M483.69,401.61c-10.15,2.66-22.59,12.3-30.4,2.54-14.32-17.55-5.66-56.92-8-79.86,0-19.34-5.35-17,15.22-19.9,3.19-.63,5-.15,5.11,3.67.64,19.24,1.48,38.48,2.15,57.72,1.5,9.65-4.36,27.66,8.44,30.5,5.3.81,7.95-1.42,8-7.18,0-15,.11-30-.22-45-.25-11.16-1.1-22.31-1.73-33.47-.13-2.34,0-4,3-4.57,5.24.44,21.85-9.89,20.84-.45,1,31.51.15,63.34,2.67,94.68,1.93,5.62,1.77,5.91-4,6C498.24,405,486.36,409.83,483.69,401.61Z" transform="translate(-4.47 -3.21)" style="fill:#13b900"/><path d="M433.27,365.09c6.5,53.62-69.14,61.4-70.88,7.53-1.19-30.62-.77-60.48,39.34-59.3C430.21,317.54,433.55,341.34,433.27,365.09ZM407,348.63l-.47,0c-.47-7.7-.73-15.42-1.49-23.09-1.07-10.31-16.77-8.74-16.71,1.11-.05,21.21,0,42.41.16,63.62-.2,6,2.75,14.85,9.8,13.89,9.37-.17,8.15-10.64,8.67-17.52C407,374,407,361.29,407,348.63Z" transform="translate(-4.47 -3.21)" style="fill:#13b900"/><path d="M311.65,348.42c10.92-7.85,37.42-8.12,37.38,8.49.37,14.93-.3,29.9.84,44.82,0,1.2-1.2,3.44-1.91,3.47-4.4-.68-20,2.39-20.61-2.82-.2-13-.32-26-.23-39,0-7-.75-8.28-7.11-9.34-6.68-1.48-9.14,5.33-8.94,10.83.22,12.5.67,25,.68,37.49-2.89,7-13.36,2.67-19.34,3.94-3.81.18-5.24-1.09-5.23-5.05-.11-26.67.11-53.38-.75-80-.15-2.94.7-4.14,3.47-4.72C320.89,306.93,304.49,318.63,311.65,348.42Z" transform="translate(-4.47 -3.21)" style="fill:#13b900"/><path d="M581.23,334.59c-9.48,6.75-18.54-4.44-26.26-8.85-12.89-8.84-24.62,3.83-13.13,14.39a159.6,159.6,0,0,0,28.26,11.33c30,7.36,23.27,55.92-7.45,54.81-7.75.59-16-.83-23.62.39-5.2,3-7.43-.35-9.77-4-13.59-17.3-8.23-20.39,10.57-13.1,7,3.39,13.12,9.89,21.29,10.61,15,2,17.67-15.66,5.58-21.54-14.71-8.44-36.76-8.51-44.36-25.79-3.83-10.16-1.41-25.16,8.38-32,11.46-8.12,24.59-3.34,37.25-2.7C576,319,577,329,581.23,334.59Z" transform="translate(-4.47 -3.21)" style="fill:#13b900"/><path d="M346.06,114.66c-4.73-22.23-33.47-11.79-31.42,6.66,2.91,20.46,25.94,25.21,41.86,14.73C396.62,105.12,338,59.2,304.3,86.57c-2.93,2-6.5,3-10.71,3.68,10.24-14.11,11.67-29.26,7.24-45.46l1.64-.5c1.53,1,3.58,1.61,4.51,3,6,8.92,15.65,11,25,13.43,45.27,6.76,73.77,70.63,19.56,87.15-22.09,6.24-49.93-7.55-43.37-32.59,2.89-24.28,42.41-28.19,39.86-.56Z" transform="translate(-4.47 -3.21)" style="fill:#13b900"/><path d="M492.59,148.8c-4.9-1.15-26.43,3.46-23.2-4.16,2.45-23.07-.42-46.76,0-70-1.19-8.73-1-9.29,7.85-10.48,13.17-4.58,10.8-.56,11.05,8.37.1,6.88-.2,12.4,1.36,19.44,45.45-21,25.88,32.27,33.95,56.1-5.56,1.77-12.11.41-17.95.88-3.11,0-3.93-.88-3.82-4.39.41-13.18.33-26.39.07-39.58-.12-6-2.42-8-7.23-7.66-3.47.23-5.56,1.79-5.46,5.55C490.57,118.37,487.69,133.73,492.59,148.8Z" transform="translate(-4.47 -3.21)" style="fill:#13b900"/><path d="M462.77,83.55c-13.42,4.29-18.61-8.58-28.58-13.66-3.86,7.72-1.8,16.54-2.16,24.86.23,13.16.42,26.33.9,39.49-1.28,4.43,6.74,14.42-.45,14.63-5.29-.75-22,2.89-23-3.52,4.33-8.16,2.19-16.86,2.24-25.29-.61-16.41.92-33.25-2.25-49.39-11.29,2-14.82,16.28-27.7,12.25,1.29-5.26,4-21.8,11.19-20.66,11.61.94,23.25,1.64,34.88,1.81C456,64.73,452.1,53.52,462.77,83.55Z" transform="translate(-4.47 -3.21)" style="fill:#13b900"/><path d="M665.65,398.34c-16,16-38.76,10.52-56.07-.29-18.68-18.88-12.44-49.37,10-61,26.7-15.8,57.24,30.43,37.7,30.6-10.34.15-20.69-.14-31,.33-3.82.18-5.3,2.63-3.71,6.63C628.88,393.51,648.19,396.15,665.65,398.34Zm-36.35-34.7c7.83.33,13.79-.75,11.31-9.76-1.1-7.21-8.11-16.48-15.78-13.73a10.91,10.91,0,0,0-7.46,9.92C616.44,360.39,619.08,363.67,629.3,363.64Z" transform="translate(-4.47 -3.21)" style="fill:#13b900"/><path d="M587.92,142.36c-10.3,11.81-36.24,11-48-1.41C529.5,128.51,529.24,108,540,95.41c15.2-16,46.09-7.43,46.08,16.18,1.92,11.27-23.89,1.09-34.13,7.18,2.55,17.06,19.37,23.89,35,22.17Zm-31-29.09c10.49-1,10.88-1.59,7.93-11-.44-7.09-10.78-11.54-14.51-5.88C545,104.23,547,111.34,556.93,113.27Z" transform="translate(-4.47 -3.21)" style="fill:#13b900"/><path d="M407,348.63c0,12.66,0,25.33,0,38-.52,6.87.7,17.36-8.67,17.52-7.05.94-10-7.87-9.8-13.9-.12-21.2-.21-42.4-.16-63.61-.06-9.81,15.64-11.45,16.71-1.11.76,7.67,1,15.39,1.49,23.09Z" transform="translate(-4.47 -3.21)" style="fill:none"/><path d="M629.3,363.64c-10.22,0-12.86-3.25-11.93-13.57a10.91,10.91,0,0,1,7.46-9.92c7.68-2.74,14.68,6.52,15.78,13.73C643.08,362.88,637.13,364,629.3,363.64Z" transform="translate(-4.47 -3.21)"/><path d="M556.93,113.27c-9.9-1.93-11.89-9-6.58-16.93,3.73-5.66,14.07-1.21,14.51,5.88C567.81,111.68,567.42,112.22,556.93,113.27Z" transform="translate(-4.47 -3.21)"/><path d="M511.91,189.9c-18.12-8.59-40.19.41-54.49,10.41V191H433.48v82.58l23.79-6.13c.43-15.15-2.58-35.14,7.09-48.72,7.36-12.41,21.84-26.11,35.31-26.5,28.22,2.65,9.14,29.81-9.86,30.08l18.49,21C534.46,229.32,544.32,204.65,511.91,189.9Z" transform="translate(-4.47 -3.21)" style="fill:#fca052"/><path d="M633.08,189.9c-18.12-8.59-40.19.41-54.49,10.41V191H554.65v90.22l23.9,7.77c1-33.17-8-66.68,24.17-89.36,11-9.18,28.27-11.15,32.79,2.46-.34,10.38-13.58,19.67-24.53,20.22l18.49,21C655.63,229.32,665.49,204.65,633.08,189.9Z" transform="translate(-4.47 -3.21)" style="fill:#f6b33e"/><path d="M803.4,156.19H278.78V171.1h14.91c2.05,18.64-5.71,79.56,7.09,94.94,18.19,29.21,58.09,30.45,82.53,8.73v9.86c10.49,2.59,17.43-.86,25.27-3.64V191.32h-25c-.68,9.28,1.69,52-2,60.26-4.59,21.13-31.32,41.75-52.26,27.14-21.15-14.65-9.12-86.18-12.08-107.62H675.7v68.09c-.22,16.82,11.34,30.5,26.44,37,20.38,8.9,55.32,6.71,68-8-1.81,17.58,5.56,60.35-8.2,74.33-15.68,20.5-52.26,27.94-74.7,16.58-42.83-27.36,7.33-40,32.11-41.47l-15.65-21c-20.16.33-47.33,12.59-48.69,35.13,9.63,44.38,82.89,51.77,117.1,27.74,12.66-8.66,21.34-22,21.2-37.57V195.85L767.53,187c-1.28,15,4.41,52.35-5.49,65.55-11,21.63-41.78,31.94-57.69,14-9.45-12.5-3.5-79.61-5.23-95.42h104Z" transform="translate(-4.47 -3.21)" style="fill:url(#linear-gradient)"/><g id="Layer_2" data-name="Layer 2"><polygon points="678.21 334.68 716.17 344.74 708.19 333.92 684.49 327.11 678.21 334.68" style="fill:#ff6700"/><polygon points="274.31 324.98 247.73 332.8 236.14 345.72 274.31 335.15 274.31 324.98" style="fill:#ff6700"/><polygon points="645.62 315.94 473.39 266.44 313.67 313.41 313.67 324.26 472.81 280.21 643.01 325.34 645.62 315.94" style="fill:#ff6700"/></g></svg>