<?xml version="1.0" standalone="no"?>
<!DOCTYPE svg PUBLIC "-//W3C//DTD SVG 20010904//EN"
 "http://www.w3.org/TR/2001/REC-SVG-20010904/DTD/svg10.dtd">
<svg version="1.0" xmlns="http://www.w3.org/2000/svg"
 width="754.000000pt" height="754.000000pt" viewBox="0 0 754.000000 754.000000"
 preserveAspectRatio="xMidYMid meet">
<metadata>
Created by potrace 1.11, written by Peter Selinger 2001-2013
</metadata>
<g transform="translate(0.000000,754.000000) scale(0.100000,-0.100000)"
fill="#000000" stroke="none">
<path d="M4278 7035 c-2 -2 -66 -6 -143 -9 -77 -4 -162 -8 -190 -10 -138 -10
-234 -17 -270 -22 -22 -2 -62 -7 -90 -10 -27 -3 -63 -7 -80 -9 -50 -5 -149
-17 -170 -21 -11 -2 -40 -7 -65 -10 -25 -3 -47 -8 -50 -9 -3 -2 -26 -6 -50
-10 -141 -20 -402 -86 -575 -145 -66 -23 -124 -42 -130 -44 -13 -4 -28 -10
-155 -64 -193 -81 -587 -294 -598 -323 -2 -5 -8 -9 -14 -9 -8 0 -76 -44 -113
-72 -5 -4 -57 -42 -115 -84 -98 -72 -305 -238 -341 -273 -9 -9 -45 -41 -80
-71 -93 -80 -301 -288 -340 -340 -18 -25 -39 -50 -44 -56 -10 -11 -137 -194
-160 -232 -5 -9 -25 -40 -42 -68 -18 -29 -33 -57 -33 -63 0 -5 -6 -16 -12 -23
-12 -12 -73 -131 -97 -188 -6 -14 -15 -32 -20 -40 -13 -20 -25 -53 -23 -62 1
-5 -2 -8 -7 -8 -5 0 -11 -10 -14 -22 -3 -13 -24 -72 -47 -133 -23 -60 -43
-114 -44 -120 -1 -5 -12 -41 -24 -80 -22 -75 -45 -160 -42 -160 1 0 -3 -12 -9
-26 -5 -15 -13 -46 -16 -70 -4 -24 -8 -46 -10 -49 -2 -4 -7 -29 -11 -56 -3
-27 -8 -51 -9 -54 -2 -3 -7 -33 -10 -65 -4 -33 -9 -69 -11 -80 -12 -64 -19
-217 -18 -415 1 -182 8 -365 14 -365 1 0 3 -18 6 -40 2 -22 7 -51 10 -65 3
-14 8 -38 11 -55 2 -16 13 -75 25 -130 11 -55 21 -105 22 -112 1 -7 5 -16 9
-19 4 -4 7 -18 7 -30 0 -13 4 -33 9 -46 5 -13 24 -70 42 -128 18 -58 36 -109
39 -115 4 -5 13 -28 20 -50 13 -38 52 -129 108 -245 85 -176 255 -438 381
-584 101 -116 296 -301 421 -399 51 -40 239 -161 315 -204 96 -53 138 -73 300
-144 11 -5 47 -18 80 -29 33 -12 69 -25 80 -30 11 -5 34 -12 50 -16 17 -4 35
-8 40 -10 14 -5 98 -26 110 -28 6 -1 15 -4 20 -8 6 -3 28 -9 49 -12 21 -4 48
-8 60 -11 30 -7 75 -15 121 -21 22 -3 51 -8 65 -10 139 -27 572 -26 770 1 14
2 48 6 75 10 117 16 360 74 475 115 83 29 170 63 200 80 19 10 38 19 43 19 9
1 128 61 187 96 25 14 53 28 63 32 9 3 17 9 17 13 0 4 11 12 25 18 14 7 31 17
38 22 7 6 49 38 95 71 140 103 331 288 414 401 9 13 35 48 57 78 22 30 44 60
49 65 18 23 84 137 134 235 73 142 165 390 182 492 3 15 7 31 9 36 5 7 16 67
23 127 2 17 5 41 8 54 10 46 20 196 20 296 -1 100 -13 284 -20 296 -2 4 -6 24
-9 45 -21 146 -79 334 -153 494 -38 83 -112 213 -124 218 -5 2 -8 8 -8 13 0
22 -133 184 -230 279 -93 92 -215 189 -289 231 -14 8 -30 18 -35 22 -31 23
-241 127 -257 127 -5 0 -28 9 -52 19 -43 20 -167 60 -202 67 -11 2 -38 8 -60
13 -74 17 -80 19 -125 26 -25 4 -52 9 -60 10 -59 11 -198 19 -330 19 -121 0
-176 -5 -250 -21 -109 -24 -232 -64 -306 -99 -28 -13 -56 -24 -62 -24 -7 0
-12 -4 -12 -10 0 -5 -9 -10 -20 -10 -11 0 -20 -4 -20 -10 0 -5 -5 -10 -10 -10
-13 0 -144 -81 -148 -92 -2 -4 -10 -8 -17 -8 -7 0 -15 -3 -17 -7 -1 -5 -23
-24 -48 -44 -288 -232 -503 -600 -556 -954 -23 -150 -22 -328 1 -460 41 -230
127 -399 279 -550 45 -44 101 -93 126 -110 25 -16 47 -33 50 -37 11 -14 179
-95 240 -115 90 -31 135 -41 210 -50 69 -7 208 -8 250 0 107 20 246 71 282
104 10 9 18 13 18 9 0 -10 128 91 161 128 35 39 82 124 114 210 66 176 60 327
-17 411 -55 61 -138 86 -216 66 -44 -12 -138 -81 -228 -169 -7 -6 -17 -12 -23
-12 -6 0 -11 -3 -11 -8 0 -7 -69 -45 -103 -56 -11 -3 -24 -3 -30 1 -6 4 -23 8
-38 10 -14 1 -48 12 -75 24 -27 12 -52 22 -55 21 -15 -3 -106 97 -126 138 -37
77 -43 108 -43 225 0 106 6 162 24 230 17 66 69 148 126 201 24 22 48 44 54
49 36 34 216 126 275 141 9 2 40 10 69 19 90 24 131 28 302 29 128 0 179 -4
230 -18 36 -10 70 -19 75 -20 66 -18 174 -78 233 -130 65 -57 176 -208 236
-319 37 -68 89 -198 101 -249 17 -76 23 -114 19 -120 -3 -5 -1 -8 3 -8 10 0 9
-219 -1 -275 -17 -95 -50 -196 -93 -285 -25 -52 -49 -97 -53 -100 -4 -3 -13
-16 -20 -29 -7 -14 -17 -30 -21 -35 -5 -6 -23 -29 -40 -51 -94 -122 -233 -242
-394 -342 -39 -24 -195 -102 -195 -97 0 2 -14 -3 -31 -11 -34 -18 -139 -54
-179 -61 -14 -3 -43 -10 -65 -16 -22 -6 -51 -12 -65 -14 -14 -1 -52 -6 -85
-10 -138 -18 -346 -8 -475 21 -36 9 -74 17 -85 19 -11 2 -40 12 -65 21 -25 9
-54 20 -65 24 -11 5 -50 22 -88 39 -37 18 -69 32 -72 31 -3 0 -17 9 -32 21
-14 11 -32 20 -39 20 -8 0 -14 3 -14 8 0 4 -25 23 -55 42 -30 19 -55 38 -55
43 0 4 -5 7 -11 7 -30 0 -269 230 -349 336 -25 32 -48 61 -52 62 -5 2 -8 7 -8
12 0 4 -16 32 -36 61 -37 56 -126 235 -138 279 -4 14 -11 34 -15 45 -26 65
-47 152 -70 298 -11 66 -11 319 0 387 5 30 11 71 14 90 14 87 21 119 34 153 6
15 9 27 6 27 -4 0 34 114 55 165 7 17 14 35 15 41 2 7 25 56 52 110 105 210
225 377 388 539 156 157 231 216 410 324 87 52 143 80 290 145 67 30 275 92
341 101 21 4 48 9 59 12 11 3 31 7 45 9 14 1 54 6 90 10 69 8 401 9 460 1 19
-2 67 -8 105 -12 39 -4 73 -9 76 -11 3 -2 24 -6 46 -8 65 -9 272 -65 378 -103
106 -38 191 -61 265 -69 25 -3 72 -9 105 -14 176 -24 482 -2 616 45 131 47
243 163 251 262 3 25 4 26 107 43 35 6 90 20 122 30 59 18 73 14 43 -10 -40
-34 -104 -182 -119 -276 -5 -27 -10 -56 -12 -64 -14 -54 -8 -235 9 -300 31
-115 79 -199 175 -305 20 -22 107 -93 138 -112 100 -62 231 -112 357 -135 93
-18 321 -16 368 2 3 1 8 2 12 1 13 -2 171 51 226 75 29 13 53 22 55 21 1 -1
16 8 34 21 17 12 34 22 38 22 4 0 44 27 88 60 176 128 279 272 338 473 24 81
34 316 17 391 -5 23 -12 51 -14 62 -10 51 -49 164 -77 224 -17 36 -30 68 -29
73 1 4 -2 7 -6 7 -5 0 -14 12 -21 28 -11 23 -77 125 -102 156 -59 74 -167 185
-229 236 -177 145 -445 271 -630 296 -19 3 -42 8 -50 11 -8 3 -20 7 -27 9 -46
9 -165 49 -169 56 -3 4 -12 8 -20 8 -29 0 -79 42 -158 135 -21 25 -43 45 -48
45 -5 0 -14 5 -21 10 -7 6 -38 26 -70 45 -55 32 -62 34 -100 24 -23 -6 -51
-13 -63 -15 -16 -5 -27 6 -56 53 -66 107 -205 222 -337 280 -31 14 -65 29 -76
33 -54 24 -232 67 -315 76 -25 3 -56 8 -70 11 -25 5 -556 13 -562 8z m2612
-1895 c0 -9 5 -21 12 -28 17 -17 13 -160 -6 -204 -9 -21 -19 -38 -22 -38 -3 0
-2 28 1 63 4 34 7 67 7 72 0 18 -12 139 -17 165 -4 24 -4 24 10 6 8 -11 15
-27 15 -36z m-492 -123 c22 -10 43 -63 57 -142 3 -16 9 -43 13 -60 10 -34 -3
-32 199 -37 68 -2 123 -6 123 -9 0 -3 -12 -17 -27 -31 -29 -27 -133 -83 -133
-72 0 4 -7 1 -16 -7 -26 -22 -200 -18 -249 5 -66 32 -103 65 -130 119 -44 88
-28 173 40 214 52 31 88 37 123 20z"/>
</g>
</svg>
